{"title":"The.Comic.Strip.Complete.Collection.D2.DVDRip.x264.Iou1","uid":8548423,"size":1317291969,"categoryP":"video","categoryS":"tv_shows","magnet":"?xt=urn:btih:6b5d952fb7aa63be4551c15b9c51238b2e239a8a&amp;dn=The.Comic.Strip.Complete.Collection.D2.DVDRip.x264.Iou1&amp;tr=udp%3A%2F%2Ftracker.openbittorrent.com%3A80&amp;tr=udp%3A%2F%2Fopen.demonii.com%3A1337&amp;tr=udp%3A%2F%2Ftracker.coppersurfer.tk%3A6969&amp;tr=udp%3A%2F%2Fexodus.desync.com%3A6969","seeders":1,"leechers":1,"uploader":"jaybee211","files":-1,"time":1370576545,"description":"Disc 2 Of 9\n\n7.Dirty Movie\n8.Susie\n9.A Fistful Of Travellers Cheques\n10.Gino, Full Story And Pics\n11.Eddie Monsoon. A Life\n\nNote. Video/Audio Bitrate And Resolution Height varies slightly in all 5 clips\n\nFormat                                   : MPEG-4\nFormat profile                           : Base Media / Version 2\nCodec ID                                 : mp42\nFile size                                : 1.22 GiB\nDuration                                 : 2h 42mn 51s\nOverall bit rate mode                    : Variable\nOverall bit rate                         : 1 072 Kbps\n\nVideo\nID                                       : 1\nFormat                                   : AVC\nFormat/Info                              : Advanced Video Codec\nFormat profile                           : &lt;a class=&quot;__cf_email__&quot; href=&quot;/cdn-cgi/l/email-protection&quot; data-cfemail=&quot;420f232b2c020e716c72&quot;&gt;[email&amp;#160;protected]&lt;/a&gt;&lt;script cf-hash='f9e31' type=&quot;text/javascript&quot;&gt;\n/* &lt;![CDATA[ */!function(){try{var t=&quot;currentScript&quot;in document?document.currentScript:function(){for(var t=document.getElementsByTagName(&quot;script&quot;),e=t.length;e--;)if(t[e].getAttribute(&quot;cf-hash&quot;))return t[e]}();if(t&amp;&amp;t.previousSibling){var e,r,n,i,c=t.previousSibling,a=c.getAttribute(&quot;data-cfemail&quot;);if(a){for(e=&quot;&quot;,r=parseInt(a.substr(0,2),16),n=2;a.length-n;n+=2)i=parseInt(a.substr(n,2),16)^r,e+=String.fromCharCode(i);e=document.createTextNode(e),c.parentNode.replaceChild(e,c)}}}catch(u){}}();/* ]]&gt; */&lt;/script&gt;\nFormat settings, CABAC                   : Yes\nFormat settings, ReFrames                : 1 frame\nCodec ID                                 : avc1\nCodec ID/Info                            : Advanced Video Coding\nDuration                                 : 2h 42mn 51s\nBit rate mode                            : Variable\nBit rate                                 : 994 Kbps\nWidth                                    : 720 pixels\nHeight                                   : 552 pixels\nDisplay aspect ratio                     : 4:3\nFrame rate mode                          : Constant\nFrame rate                               : 25.000 fps\nColor space                              : YUV\nChroma subsampling                       : 4:2:0\nBit depth                                : 8 bits\nScan type                                : Progressive\nBits/(Pixel*Frame)                       : 0.100\nStream size                              : 1.135 GiB (93%)\nWriting library                          : x264 core\n\nAudio\nID                                       : 2\nFormat                                   : AAC\nFormat/Info                              : Advanced Audio Codec\nFormat profile                           : LC\nCodec ID                                 : 40\nDuration                                 : 2h 42mn 51s\nBit rate mode                            : Variable\nBit rate                                 : 74.8 Kbps\nMaximum bit rate                         : 88.5 Kbps\nChannel(s)                               : 2 channels\nChannel positions                        : Front: L R\nSampling rate                            : 48.0 KHz\nCompression mode                         : Lossy\nStream size                              : 85 MiB (7%)\nLanguage                                 : English\nSubtitles                                : None\n\nIMDB. &lt;a href=&quot; http://www.imdb.com/title/tt0083402/&quot; rel=&quot;nofollow&quot; target=&quot;_NEW&quot;&gt; http://www.imdb.com/title/tt0083402/&lt;/a&gt;\n\nScreens. &lt;a href=&quot; http://bayimg.com/aannbAAEB&quot; rel=&quot;nofollow&quot; target=&quot;_NEW&quot;&gt; http://bayimg.com/aannbAAEB&lt;/a&gt;  \n\n         &lt;a href=&quot; http://bayimg.com/AANnDAaEb&quot; rel=&quot;nofollow&quot; target=&quot;_NEW&quot;&gt; http://bayimg.com/AANnDAaEb&lt;/a&gt;\n\n         &lt;a href=&quot; http://bayimg.com/aannfaaEB&quot; rel=&quot;nofollow&quot; target=&quot;_NEW&quot;&gt; http://bayimg.com/aannfaaEB&lt;/a&gt;\n\n         &lt;a href=&quot; http://bayimg.com/aannhaAEb&quot; rel=&quot;nofollow&quot; target=&quot;_NEW&quot;&gt; http://bayimg.com/aannhaAEb&lt;/a&gt;\n\n         &lt;a href=&quot; http://bayimg.com/aanniAAEB&quot; rel=&quot;nofollow&quot; target=&quot;_NEW&quot;&gt; http://bayimg.com/aanniAAEB&lt;/a&gt;\n\nEnjoy.","torrent":{"xt":"urn:btih:6b5d952fb7aa63be4551c15b9c51238b2e239a8a","amp;dn":"The.Comic.Strip.Complete.Collection.D2.DVDRip.x264.Iou1","amp;tr":["udp%3A%2F%2Ftracker.openbittorrent.com%3A80","udp%3A%2F%2Fopen.demonii.com%3A1337","udp%3A%2F%2Ftracker.coppersurfer.tk%3A6969","udp%3A%2F%2Fexodus.desync.com%3A6969"],"infoHash":"6b5d952fb7aa63be4551c15b9c51238b2e239a8a","infoHashBuffer":{"type":"Buffer","data":[107,93,149,47,183,170,99,190,69,81,193,91,156,81,35,139,46,35,154,138]},"announce":[],"urlList":[]}}